<?xml version="1.0" encoding="iso-8859-1"?>
<!-- Generator: Adobe Illustrator 19.0.0, SVG Export Plug-In . SVG Version: 6.00 Build 0)  -->
<svg version="1.1" id="Capa_1" xmlns="http://www.w3.org/2000/svg" xmlns:xlink="http://www.w3.org/1999/xlink" x="0px" y="0px"
	 viewBox="0 0 492.461 492.461" style="enable-background:new 0 0 492.461 492.461;" xml:space="preserve">
<g>
	<path style="fill:#63C8CD;" d="M62.231,396.875c2.956-0.042,5.891-0.5,8.72-1.36c3.728,17.275,20.754,28.258,38.03,24.53
		c12.284-2.651,21.879-12.246,24.53-24.53c2.829,0.86,5.764,1.318,8.72,1.36c17.673,0,32-14.327,32-32s-14.327-32-32-32
		c-2.956,0.042-5.891,0.5-8.72,1.36c-3.728-17.275-20.754-28.258-38.03-24.53c-12.284,2.651-21.879,12.246-24.53,24.53
		c-2.829-0.86-5.764-1.318-8.72-1.36c-17.673,0-32,14.327-32,32S44.557,396.875,62.231,396.875z"/>
	<circle style="fill:#63C8CD;" cx="38.231" cy="452.875" r="24"/>
	<path style="fill:#63C8CD;" d="M484.471,158.235c-0.031-7.92-3.331-15.475-9.12-20.88c1.087-2.974,1.655-6.113,1.68-9.28
		c-0.183-12.843-8.715-24.067-21.04-27.68c-0.607-16.153-13.997-28.869-30.16-28.64c-1.04,0-1.92,0-2.96,0
		c-3.134-13.775-15.475-23.481-29.6-23.28c-4.578,0.038-9.089,1.104-13.2,3.12c-5.392-15.993-22.728-24.588-38.721-19.196
		c-4.209,1.419-8.058,3.738-11.279,6.796c-5.886-15.771-23.443-23.784-39.214-17.898c-6.849,2.556-12.551,7.489-16.066,13.898
		c-5.752-15.773-23.202-23.897-38.976-18.144c-8.429,3.074-15.07,9.715-18.144,18.144c-8.095-14.759-26.623-20.162-41.382-12.066
		c-6.409,3.515-11.342,9.217-13.898,16.066c-12.24-11.621-31.583-11.119-43.204,1.121c-3.058,3.221-5.377,7.07-6.796,11.279
		c-4.111-2.016-8.622-3.082-13.2-3.12c-14.125-0.201-26.466,9.505-29.6,23.28c-1.04,0-1.92,0-2.96,0
		c-16.163-0.229-29.553,12.487-30.16,28.64c-12.325,3.613-20.857,14.837-21.04,27.68c0.025,3.167,0.593,6.306,1.68,9.28
		c-11.532,10.697-12.208,28.717-1.512,40.248c0.485,0.523,0.989,1.027,1.512,1.512c-1.087,2.974-1.655,6.113-1.68,9.28
		c0.157,12.852,8.699,24.089,21.04,27.68c0.479,16.235,13.92,29.07,30.16,28.8h2.96c3.166,13.743,15.499,23.409,29.6,23.2
		c4.578-0.038,9.089-1.104,13.2-3.12c4.046,12.511,15.731,20.96,28.88,20.88c7.799,0.104,15.347-2.755,21.12-8
		c5.912,15.761,23.482,23.745,39.244,17.833c6.84-2.566,12.531-7.503,16.036-13.913c5.752,15.773,23.202,23.897,38.976,18.144
		c8.429-3.074,15.07-9.715,18.144-18.144c8.287,14.653,26.883,19.813,41.536,11.526c6.414-3.627,11.297-9.456,13.744-16.406
		c5.773,5.245,13.321,8.104,21.12,8c13.149,0.08,24.834-8.369,28.88-20.88c4.111,2.016,8.622,3.082,13.2,3.12
		c14.101,0.209,26.434-9.457,29.6-23.2h2.96c16.18,0.272,29.595-12.468,30.16-28.64c12.341-3.591,20.883-14.828,21.04-27.68
		c-0.025-3.167-0.593-6.306-1.68-9.28C480.956,173.112,484.242,165.879,484.471,158.235L484.471,158.235z M326.231,188.875
		c-5.92-0.035-11.619-2.258-16-6.24v46.24h-41.44c4.522-12.46-1.912-26.226-14.372-30.748c-12.46-4.522-26.226,1.912-30.748,14.372
		c-1.92,5.29-1.92,11.086,0,16.376h-41.44v-46.24c-9.809,8.915-24.987,8.191-33.903-1.617c-8.915-9.809-8.191-24.987,1.617-33.903
		c9.154-8.32,23.131-8.32,32.285,0v-46.24h41.44c-4.522,12.46,1.912,26.226,14.372,30.748c12.46,4.522,26.226-1.912,30.748-14.372
		c1.92-5.29,1.92-11.086,0-16.376h41.44v46.24c9.809-8.915,24.987-8.191,33.903,1.618s8.19,24.987-1.618,33.903
		C338.061,186.683,332.249,188.91,326.231,188.875L326.231,188.875z"/>
</g>
<path style="fill:#EF9F35;" d="M326.231,140.875c-5.92,0.035-11.619,2.258-16,6.24v-46.24h-41.44
	c4.522,12.46-1.912,26.226-14.372,30.748c-12.46,4.522-26.226-1.912-30.748-14.372c-1.92-5.29-1.92-11.086,0-16.376h-41.44v46.24
	c-9.809-8.915-24.987-8.191-33.903,1.617c-8.915,9.809-8.191,24.987,1.617,33.903c9.154,8.32,23.131,8.32,32.285,0v46.24h41.44
	c-4.522-12.46,1.912-26.226,14.372-30.748c12.46-4.522,26.226,1.912,30.748,14.372c1.92,5.29,1.92,11.086,0,16.376h41.44v-46.24
	c9.809,8.915,24.987,8.191,33.903-1.618s8.19-24.987-1.618-33.903C338.061,143.066,332.249,140.839,326.231,140.875L326.231,140.875
	z"/>
<g>
	<path style="fill:#F9F6ED;" d="M382.231,156.875h16v16h-16V156.875z"/>
	<path style="fill:#F9F6ED;" d="M414.231,188.875h16v16h-16V188.875z"/>
	<path style="fill:#F9F6ED;" d="M414.231,156.875h16v16h-16V156.875z"/>
	<path style="fill:#F9F6ED;" d="M414.231,124.875h16v16h-16V124.875z"/>
	<path style="fill:#F9F6ED;" d="M94.231,156.875h16v16h-16V156.875z"/>
	<path style="fill:#F9F6ED;" d="M62.231,124.875h16v16h-16V124.875z"/>
	<path style="fill:#F9F6ED;" d="M62.231,156.875h16v16h-16V156.875z"/>
	<path style="fill:#F9F6ED;" d="M62.231,188.875h16v16h-16V188.875z"/>
</g>
<g>
	<path style="fill:#3C3C48;" d="M65.511,404.875c8.761,20.28,32.303,29.618,52.583,20.857c9.355-4.042,16.815-11.501,20.857-20.857
		c22.091,0,40-17.909,40-40s-17.909-40-40-40c-8.761-20.28-32.303-29.618-52.583-20.857c-9.355,4.042-16.815,11.501-20.857,20.857
		c-22.091,0-40,17.909-40,40S43.419,404.875,65.511,404.875z M38.231,364.875c0-13.255,10.745-24,24-24
		c2.199,0.036,4.381,0.386,6.48,1.04c2.127,0.62,4.415,0.33,6.32-0.8c1.924-1.133,3.287-3.018,3.76-5.2
		c2.847-12.946,15.649-21.132,28.594-18.286c9.139,2.01,16.276,9.147,18.286,18.286c0.473,2.182,1.836,4.067,3.76,5.2
		c1.905,1.13,4.193,1.42,6.32,0.8c2.099-0.654,4.281-1.004,6.48-1.04c13.255,0,24,10.745,24,24s-10.745,24-24,24
		c-2.199-0.036-4.381-0.386-6.48-1.04c-2.127-0.62-4.415-0.33-6.32,0.8c-1.924,1.133-3.287,3.018-3.76,5.2
		c-2.847,12.946-15.649,21.132-28.594,18.286c-9.139-2.01-16.276-9.147-18.286-18.286c-0.532-2.093-1.889-3.882-3.76-4.96
		c-1.235-0.733-2.644-1.12-4.08-1.12c-0.742-0.117-1.498-0.117-2.24,0c-2.095,0.681-4.278,1.058-6.48,1.12
		C48.976,388.875,38.231,378.13,38.231,364.875z"/>
	<path style="fill:#3C3C48;" d="M6.231,452.875c0,17.673,14.327,32,32,32s32-14.327,32-32s-14.327-32-32-32
		S6.231,435.202,6.231,452.875z M38.231,436.875c8.837,0,16,7.163,16,16s-7.163,16-16,16s-16-7.163-16-16
		S29.394,436.875,38.231,436.875z"/>
	<path style="fill:#3C3C48;" d="M485.031,128.075c-0.086-14.356-8.477-27.363-21.52-33.36c-3.082-17.124-17.509-29.896-34.88-30.88
		c-7.453-17.135-26.178-26.396-44.32-21.92c-6.876-11.746-19.51-18.917-33.12-18.8c-6.413,0.001-12.729,1.567-18.4,4.56
		c-7.214-10.091-18.875-16.056-31.28-16c-9.467-0.002-18.605,3.471-25.68,9.76c-13.648-16.348-37.965-18.536-54.313-4.887
		c-1.772,1.48-3.408,3.115-4.887,4.887c-7.075-6.289-16.213-9.762-25.68-9.76c-12.405-0.056-24.066,5.909-31.28,16
		c-5.671-2.993-11.987-4.559-18.4-4.56c-13.61-0.117-26.244,7.054-33.12,18.8c-18.142-4.476-36.867,4.785-44.32,21.92
		c-17.371,0.984-31.798,13.756-34.88,30.88c-13.043,5.997-21.434,19.004-21.52,33.36c0.002,2.391,0.243,4.777,0.72,7.12
		c-10.867,13.438-10.867,32.642,0,46.08c-0.473,2.344-0.714,4.729-0.72,7.12c0.086,14.356,8.477,27.363,21.52,33.36
		c2.983,17.218,17.434,30.112,34.88,31.12c7.453,17.135,26.178,26.396,44.32,21.92c6.856,11.777,19.493,18.98,33.12,18.88
		c6.424,0.01,12.749-1.585,18.4-4.64c12.511,17.288,36.668,21.161,53.956,8.651c1.041-0.753,2.043-1.558,3.004-2.411
		c13.648,16.348,37.965,18.536,54.313,4.887c1.772-1.48,3.408-3.115,4.887-4.887c15.957,14.17,40.38,12.721,54.549-3.236
		c0.853-0.961,1.658-1.963,2.411-3.004c5.651,3.055,11.976,4.65,18.4,4.64c13.627,0.1,26.264-7.103,33.12-18.88
		c18.142,4.476,36.867-4.785,44.32-21.92c17.371-0.984,31.798-13.756,34.88-30.88c13.043-5.997,21.434-19.004,21.52-33.36
		c-0.006-2.391-0.247-4.776-0.72-7.12c10.867-13.438,10.867-32.642,0-46.08C484.804,133.013,485.045,130.546,485.031,128.075z
		 M470.231,173.355c-2.25,2.169-3.031,5.45-2,8.4c0.757,2.134,1.163,4.376,1.2,6.64c-0.158,9.339-6.388,17.483-15.36,20.08
		c-3.298,0.998-5.586,3.996-5.68,7.44c-0.477,12.002-10.556,21.365-22.56,20.96h-0.88h-1.28c-4.019-0.378-7.69,2.298-8.56,6.24
		c-2.984,12.051-15.173,19.402-27.224,16.418c-1.654-0.41-3.256-1.006-4.776-1.778c-3.976-1.927-8.761-0.265-10.688,3.711
		c-0.171,0.352-0.315,0.716-0.432,1.089c-2.926,9.209-11.538,15.416-21.2,15.28c-5.941,0.076-11.679-2.161-16-6.24
		c-1.957-1.868-4.726-2.621-7.36-2c-2.639,0.633-4.778,2.56-5.68,5.12c-4.442,11.594-17.441,17.391-29.035,12.949
		c-4.931-1.889-9.039-5.454-11.605-10.069c-1.533-2.932-4.713-4.617-8-4.24c-3.181,0.239-5.916,2.345-6.96,5.36
		c-4.364,11.576-17.286,17.422-28.862,13.058c-6.028-2.272-10.786-7.03-13.058-13.058c-1.044-3.015-3.779-5.121-6.96-5.36h-0.64
		c-2.949,0.008-5.654,1.637-7.04,4.24c-6.032,10.851-19.719,14.758-30.571,8.725c-4.615-2.566-8.18-6.674-10.069-11.605
		c-0.902-2.56-3.041-4.487-5.68-5.12c-2.634-0.621-5.403,0.132-7.36,2c-4.321,4.079-10.059,6.316-16,6.24
		c-9.662,0.136-18.274-6.071-21.2-15.28c-1.325-4.215-5.816-6.557-10.031-5.232c-0.373,0.117-0.737,0.262-1.089,0.432
		c-11.167,5.425-24.618,0.771-30.044-10.396c-0.66-1.359-1.182-2.78-1.556-4.244c-0.765-3.438-3.688-5.972-7.2-6.24h-1.28h-0.88
		c-11.791,0.186-21.6-9.021-22.16-20.8c-0.094-3.444-2.382-6.442-5.68-7.44c-8.972-2.597-15.202-10.741-15.36-20.08
		c0.037-2.264,0.443-4.506,1.2-6.64c1.031-2.95,0.25-6.231-2-8.4c-4.221-3.896-6.627-9.376-6.64-15.12
		c-0.004-5.725,2.407-11.186,6.64-15.04c2.282-2.184,3.066-5.506,2-8.48c-0.757-2.134-1.163-4.376-1.2-6.64
		c0.158-9.339,6.388-17.483,15.36-20.08c3.244-0.979,5.52-3.895,5.68-7.28c0.56-11.779,10.369-20.986,22.16-20.8h0.88h1.28
		c4.019,0.378,7.69-2.298,8.56-6.24c3.082-12.027,15.33-19.278,27.356-16.196c1.463,0.375,2.885,0.896,4.244,1.556
		c3.976,1.927,8.761,0.265,10.688-3.711c0.171-0.352,0.315-0.716,0.432-1.089c2.932-9.194,11.551-15.374,21.2-15.2
		c5.932-0.106,11.671,2.103,16,6.16c1.957,1.868,4.726,2.621,7.36,2c2.639-0.633,4.778-2.56,5.68-5.12
		c4.363-11.576,17.284-17.424,28.861-13.061c5.031,1.896,9.211,5.538,11.779,10.261c1.557,2.901,4.731,4.551,8,4.16
		c3.181-0.239,5.916-2.345,6.96-5.36c4.364-11.576,17.286-17.422,28.862-13.058c6.028,2.272,10.786,7.03,13.058,13.058
		c1.044,3.015,3.779,5.121,6.96,5.36c3.269,0.391,6.443-1.259,8-4.16c5.909-10.869,19.511-14.889,30.379-8.979
		c4.723,2.568,8.365,6.749,10.261,11.779c0.902,2.56,3.041,4.487,5.68,5.12c2.634,0.621,5.403-0.132,7.36-2
		c4.329-4.057,10.068-6.266,16-6.16c9.649-0.174,18.268,6.006,21.2,15.2c1.325,4.215,5.816,6.557,10.031,5.232
		c0.373-0.117,0.737-0.262,1.089-0.432c11.07-5.622,24.601-1.205,30.222,9.864c0.772,1.519,1.368,3.122,1.778,4.776
		c0.87,3.942,4.541,6.618,8.56,6.24h1.28h0.88c11.138,0.683,19.97,9.653,20.48,20.8c0.094,3.444,2.382,6.442,5.68,7.44
		c8.972,2.597,15.202,10.741,15.36,20.08c-0.037,2.264-0.443,4.506-1.2,6.64c-0.832,2.955,0.101,6.126,2.4,8.16
		c4.233,3.854,6.644,9.315,6.64,15.04C476.858,163.979,474.452,169.458,470.231,173.355L470.231,173.355z"/>
	<path style="fill:#3C3C48;" d="M326.231,132.875c-2.702-0.019-5.393,0.331-8,1.04v-33.04c0-4.418-3.582-8-8-8h-41.44
		c-4.411-0.25-8.19,3.123-8.44,7.535c-0.06,1.054,0.09,2.109,0.44,3.105c0.807,1.683,1.295,3.5,1.44,5.36c0,8.837-7.163,16-16,16
		c-8.837,0-16-7.163-16-16c0.019-1.835,0.371-3.651,1.04-5.36c1.458-4.171-0.741-8.734-4.912-10.192
		c-0.864-0.302-1.773-0.454-2.688-0.448h-41.44c-4.418,0-8,3.582-8,8v33.04c-2.607-0.709-5.298-1.059-8-1.04
		c-17.673,0-32,14.327-32,32s14.327,32,32,32c2.702,0.019,5.393-0.331,8-1.04v33.04c0,4.418,3.582,8,8,8h41.44
		c4.418,0.027,8.021-3.533,8.048-7.952c0.006-0.915-0.146-1.824-0.448-2.688c-0.669-1.709-1.021-3.525-1.04-5.36
		c0-8.837,7.163-16,16-16c8.837,0,16,7.163,16,16c-0.019,1.835-0.371,3.651-1.04,5.36c-1.465,4.168,0.726,8.735,4.895,10.2
		c0.996,0.35,2.051,0.5,3.105,0.44h41.04c4.418,0,8-3.582,8-8v-33.04c2.607,0.709,5.298,1.059,8,1.04c17.673,0,32-14.327,32-32
		S343.904,132.875,326.231,132.875L326.231,132.875z M326.231,180.875c-3.938-0.03-7.726-1.511-10.64-4.16
		c-3.28-2.96-8.339-2.701-11.299,0.579c-1.322,1.465-2.056,3.367-2.061,5.341v38.24h-24c0-17.673-14.327-32-32-32s-32,14.327-32,32
		h-24v-38.24c-0.01-4.418-3.601-7.992-8.019-7.981c-1.974,0.005-3.876,0.739-5.341,2.061c-2.914,2.649-6.702,4.13-10.64,4.16
		c-8.837,0-16-7.163-16-16s7.163-16,16-16c3.938,0.03,7.726,1.511,10.64,4.16c3.28,2.96,8.339,2.701,11.299-0.579
		c1.322-1.465,2.056-3.367,2.061-5.341v-38.24h24c0,17.673,14.327,32,32,32s32-14.327,32-32h24v38.24
		c0.01,4.418,3.601,7.992,8.019,7.981c1.974-0.005,3.876-0.739,5.341-2.061c2.914-2.649,6.702-4.13,10.64-4.16
		c8.837,0,16,7.163,16,16S335.067,180.875,326.231,180.875z"/>
</g>
<g>
</g>
<g>
</g>
<g>
</g>
<g>
</g>
<g>
</g>
<g>
</g>
<g>
</g>
<g>
</g>
<g>
</g>
<g>
</g>
<g>
</g>
<g>
</g>
<g>
</g>
<g>
</g>
<g>
</g>
</svg>
