<?xml version="1.0" encoding="iso-8859-1"?>
<!-- Generator: Adobe Illustrator 19.0.0, SVG Export Plug-In . SVG Version: 6.00 Build 0)  -->
<svg version="1.1" id="Capa_1" xmlns="http://www.w3.org/2000/svg" xmlns:xlink="http://www.w3.org/1999/xlink" x="0px" y="0px"
	 viewBox="0 0 480.001 480.001" style="enable-background:new 0 0 480.001 480.001;" xml:space="preserve">
<g>
	<circle style="fill:#63C8CD;" cx="240" cy="224" r="40"/>
	<path style="fill:#63C8CD;" d="M128,264h-16c0,22.091,17.909,40,40,40h48v64l-16,104h40l16-104l16,104h40l-16-104v-64h48
		c22.091,0,40-17.909,40-40H128z"/>
</g>
<g>
	<circle style="fill:#F7D04F;" cx="72" cy="40" r="32"/>
	<path style="fill:#F7D04F;" d="M128,128c0-30.928-25.072-56-56-56s-56,25.072-56,56v24h112V128z"/>
</g>
<g>
	<circle style="fill:#1895AA;" cx="184" cy="40" r="32"/>
	<path style="fill:#1895AA;" d="M184,152h56v-24c0-30.928-25.072-56-56-56s-56,25.072-56,56v24H184z"/>
</g>
<g>
	<circle style="fill:#EF9F35;" cx="296" cy="40" r="32"/>
	<path style="fill:#EF9F35;" d="M296,152h56v-24c0-30.928-25.072-56-56-56s-56,25.072-56,56v24H296z"/>
</g>
<g>
	<circle style="fill:#63C8CD;" cx="408" cy="40" r="32"/>
	<path style="fill:#63C8CD;" d="M416,152h48v-24c0-30.928-25.072-56-56-56s-56,25.072-56,56v24H416z"/>
</g>
<path style="fill:#3C3C48;" d="M464,160c4.418,0,8-3.582,8-8v-24c-0.024-25.108-14.728-47.883-37.6-58.24
	C443.037,62.284,448,51.424,448,40c0-22.091-17.909-40-40-40s-40,17.909-40,40c0,11.424,4.963,22.284,13.6,29.76
	c-12.534,5.727-22.906,15.315-29.6,27.36c-6.694-12.045-17.066-21.633-29.6-27.36C331.037,62.284,336,51.424,336,40
	c0-22.091-17.909-40-40-40s-40,17.909-40,40c0,11.424,4.963,22.284,13.6,29.76c-12.534,5.727-22.906,15.315-29.6,27.36
	c-6.694-12.045-17.066-21.633-29.6-27.36C219.037,62.284,224,51.424,224,40c0-22.091-17.909-40-40-40s-40,17.909-40,40
	c0,11.424,4.963,22.284,13.6,29.76c-12.534,5.727-22.906,15.315-29.6,27.36c-6.694-12.045-17.066-21.633-29.6-27.36
	C107.037,62.284,112,51.424,112,40c0-22.091-17.909-40-40-40S32,17.909,32,40c0,11.424,4.963,22.284,13.6,29.76
	C22.728,80.117,8.024,102.892,8,128v24c0,4.418,3.582,8,8,8h51.04l48,96H112c-4.418,0-8,3.582-8,8c0,26.51,21.49,48,48,48h40v55.36
	L176,470.8c-0.663,4.368,2.341,8.447,6.709,9.11c0.427,0.065,0.859,0.095,1.291,0.09h40c3.989,0.045,7.402-2.856,8-6.8l8-52.56
	l8,52.56c0.598,3.944,4.011,6.845,8,6.8h40c4.418,0.05,8.04-3.491,8.09-7.909c0.005-0.432-0.025-0.864-0.09-1.291l-16-103.44V312h40
	c26.51,0,48-21.49,48-48c0-4.418-3.582-8-8-8h-2.24l54.88-96H464z M384,40c0-13.255,10.745-24,24-24s24,10.745,24,24
	s-10.745,24-24,24S384,53.255,384,40z M408,80c26.51,0,48,21.49,48,48v16h-96v-16C360,101.49,381.491,80,408,80z M272,40
	c0-13.255,10.745-24,24-24s24,10.745,24,24s-10.745,24-24,24S272,53.255,272,40z M296,80c26.51,0,48,21.49,48,48v16h-96v-16
	C248,101.49,269.491,80,296,80z M160,40c0-13.255,10.745-24,24-24s24,10.745,24,24s-10.745,24-24,24S160,53.255,160,40z M184,80
	c26.51,0,48,21.49,48,48v16h-96v-16C136,101.49,157.491,80,184,80z M48,40c0-13.255,10.745-24,24-24s24,10.745,24,24
	S85.255,64,72,64S48,53.255,48,40z M24,128c0-26.51,21.49-48,48-48s48,21.49,48,48v16H24V128z M128,160h43.04L128,246.08L84.96,160
	L128,160z M328,296h-48c-4.418,0-8,3.582-8,8v64c-0.04,0.399-0.04,0.801,0,1.2l14.64,94.8h-24L248,366.8c0-4.418-3.582-8-8-8
	s-8,3.582-8,8L217.12,464h-24L208,369.2c0.04-0.399,0.04-0.801,0-1.2v-64c0-4.418-3.582-8-8-8h-48
	c-14.583-0.011-27.314-9.88-30.96-24h237.92C355.315,286.12,342.583,295.989,328,296L328,296z M208,224c0-17.673,14.327-32,32-32
	c17.673,0,32,14.327,32,32c0,17.673-14.327,32-32,32C222.327,256,208,241.673,208,224z M275.68,256
	c17.733-19.706,16.134-50.055-3.572-67.788c-19.706-17.733-50.055-16.134-67.788,3.572c-16.427,18.254-16.427,45.962,0,64.216
	h-63.36l48-96h102.08l48,96H275.68z M352.48,247.04L308.96,160h93.28L352.48,247.04z"/>
<g>
</g>
<g>
</g>
<g>
</g>
<g>
</g>
<g>
</g>
<g>
</g>
<g>
</g>
<g>
</g>
<g>
</g>
<g>
</g>
<g>
</g>
<g>
</g>
<g>
</g>
<g>
</g>
<g>
</g>
</svg>
