<?xml version="1.0" encoding="iso-8859-1"?>
<!-- Generator: Adobe Illustrator 19.0.0, SVG Export Plug-In . SVG Version: 6.00 Build 0)  -->
<svg version="1.1" id="Capa_1" xmlns="http://www.w3.org/2000/svg" xmlns:xlink="http://www.w3.org/1999/xlink" x="0px" y="0px"
	 viewBox="0 0 480.102 480.102" style="enable-background:new 0 0 480.102 480.102;" xml:space="preserve">
<g>
	<path style="fill:#63C8CD;" d="M216,240.051v-48c0-26.51-21.49-48-48-48h-32l-24,64l-24-64H56c-26.51,0-48,21.49-48,48v112h48v168
		h112v-216c0,17.673,14.327,32,32,32h64v-48H216z"/>
	<circle style="fill:#63C8CD;" cx="112" cy="88.051" r="56"/>
</g>
<path style="fill:#F7D04F;" d="M264,8.051v232v48v184h32v-320v-144H264z"/>
<g>
	<path style="fill:#EF9F35;" d="M296,152.051l176-72l-176-72V152.051z"/>
	<path style="fill:#EF9F35;" d="M136,144.051h-24H88l24,64L136,144.051z"/>
</g>
<g>
	<path style="fill:#3C3C48;" d="M475.04,72.611l-176-72c-0.967-0.383-2-0.573-3.04-0.56h-32c-4.418,0-8,3.582-8,8v224h-32v-40
		c0-30.928-25.072-56-56-56h-13.84c26.593-23.284,29.275-63.718,5.991-90.311S96.433,16.464,69.84,39.749
		s-29.275,63.718-5.991,90.311c1.863,2.127,3.864,4.129,5.991,5.991H56c-30.928,0-56,25.072-56,56v112c0,4.418,3.582,8,8,8h40v160
		c0,4.418,3.582,8,8,8h112c4.418,0,8-3.582,8-8v-184c6.902,5.235,15.338,8.047,24,8h56v176c0,4.418,3.582,8,8,8h32
		c4.418,0,8-3.582,8-8v-314.64l171.04-69.92c4.109-1.624,6.124-6.271,4.5-10.38C478.726,75.053,477.097,73.424,475.04,72.611
		L475.04,72.611z M124.48,152.051l-12.48,33.2l-12.48-33.2H124.48z M64,88.051c0-26.51,21.49-48,48-48s48,21.49,48,48
		s-21.49,48-48,48S64,114.561,64,88.051z M200,280.051c-13.255,0-24-10.745-24-24v-64h-16v272h-40v-168h-16v168H64v-272H48v104H16
		v-104c0-22.091,17.909-40,40-40h26.48l22,58.8c1.507,4.153,6.096,6.298,10.249,4.791c2.228-0.809,3.982-2.563,4.791-4.791l22-58.8
		H168c22.091,0,40,17.909,40,40v48c0,4.418,3.582,8,8,8h40v32H200z M288,464.051h-16v-448h16V464.051z M304,140.131v-120
		l146.88,59.92L304,140.131z"/>
	<path style="fill:#3C3C48;" d="M104,232.051h16v16h-16V232.051z"/>
</g>
<g>
</g>
<g>
</g>
<g>
</g>
<g>
</g>
<g>
</g>
<g>
</g>
<g>
</g>
<g>
</g>
<g>
</g>
<g>
</g>
<g>
</g>
<g>
</g>
<g>
</g>
<g>
</g>
<g>
</g>
</svg>
