<?xml version="1.0" encoding="iso-8859-1"?>
<!-- Generator: Adobe Illustrator 19.0.0, SVG Export Plug-In . SVG Version: 6.00 Build 0)  -->
<svg version="1.1" id="Capa_1" xmlns="http://www.w3.org/2000/svg" xmlns:xlink="http://www.w3.org/1999/xlink" x="0px" y="0px"
	 viewBox="0 0 480 480" style="enable-background:new 0 0 480 480;" xml:space="preserve">
<g>
	<path style="fill:#F7D04F;" d="M472,192v-56h-56C416,166.928,441.072,192,472,192z"/>
	<path style="fill:#F7D04F;" d="M416,472h56v-56C441.072,416,416,441.072,416,472z"/>
</g>
<path style="fill:#63C8CD;" d="M416,136H72v336h344c0-30.928,25.072-56,56-56V192C441.072,192,416,166.928,416,136z"/>
<path style="fill:#1895AA;" d="M8,72v336c0,35.346,28.654,64,64,64V136C36.654,136,8,107.346,8,72z"/>
<g>
	<path style="fill:#F9F6ED;" d="M72,8C36.654,8,8,36.654,8,72s28.654,64,64,64h400V8H72z"/>
	<circle style="fill:#F9F6ED;" cx="264" cy="296" r="112"/>
</g>
<g>
	<path style="fill:#3C3C48;" d="M472,0H72C32.235,0,0,32.235,0,72v336c0,39.764,32.235,72,72,72h400c4.418,0,8-3.582,8-8V8
		C480,3.582,476.418,0,472,0z M72,16h392v112H72c-30.928,0-56-25.072-56-56S41.072,16,72,16z M464,183.28
		c-20.109-3.417-35.863-19.171-39.28-39.28H464V183.28z M80,144h328.56c3.673,28.962,26.478,51.767,55.44,55.44v209.12
		c-28.962,3.673-51.767,26.478-55.44,55.44H80V144z M16,408V117.2c1.545,1.934,3.201,3.777,4.96,5.52l0.96,0.88
		c1.44,1.36,2.96,2.8,4.56,4.08l2.08,1.6l4,2.8l2.48,1.52l4,2.24l2.72,1.28l4.16,1.76l2.96,1.04c1.467,0.537,2.962,0.991,4.48,1.36
		c0.96,0,1.92,0.56,2.88,0.72s3.36,0.64,5.12,0.88l2.4,0.4v320C36.358,459.204,16.055,435.704,16,408L16,408z M424.72,464
		c3.417-20.109,19.171-35.863,39.28-39.28V464H424.72z"/>
	<path style="fill:#3C3C48;" d="M112,96h224v16H112V96z"/>
	<path style="fill:#3C3C48;" d="M288,64h144v16H288V64z"/>
	<path style="fill:#3C3C48;" d="M120,32h256v16H120V32z"/>
	<path style="fill:#3C3C48;" d="M352,96h16v16h-16V96z"/>
	<path style="fill:#3C3C48;" d="M80,64h48v16H80V64z"/>
	<path style="fill:#3C3C48;" d="M384,96h16v16h-16V96z"/>
	<path style="fill:#3C3C48;" d="M416,96h16v16h-16V96z"/>
	<path style="fill:#3C3C48;" d="M392,32h16v16h-16V32z"/>
	<path style="fill:#3C3C48;" d="M144,64h112v16H144V64z"/>
	<path style="fill:#3C3C48;" d="M424,312v-16h-96c-3.012,0.009-5.764,1.71-7.12,4.4L306.96,328L280,206.24
		c-0.838-3.721-4.187-6.333-8-6.24c-4.015-0.04-7.438,2.904-8,6.88l-18.56,136.56L224,261.92c-0.965-3.594-4.281-6.047-8-5.92
		c-3.585-0.187-6.856,2.037-8,5.44L194.24,304H120v16h80c3.439,0.009,6.499-2.182,7.6-5.44l7.52-22.72L240,386.08
		c0.965,3.594,4.281,6.047,8,5.92h0.48c3.801-0.23,6.914-3.108,7.44-6.88l18-131.76L296,353.76c0.757,3.303,3.513,5.771,6.88,6.16
		c3.305,0.362,6.49-1.357,8-4.32l22.08-43.6L424,312z"/>
</g>
<g>
</g>
<g>
</g>
<g>
</g>
<g>
</g>
<g>
</g>
<g>
</g>
<g>
</g>
<g>
</g>
<g>
</g>
<g>
</g>
<g>
</g>
<g>
</g>
<g>
</g>
<g>
</g>
<g>
</g>
</svg>
